<svg xmlns="http://www.w3.org/2000/svg" viewBox="0 0 512 512">
  <defs>
    <linearGradient id="bg" x1="0%" y1="0%" x2="100%" y2="100%">
      <stop offset="0%" style="stop-color:#7c3aed"/>
      <stop offset="100%" style="stop-color:#4f46e5"/>
    </linearGradient>
  </defs>
  <rect width="512" height="512" rx="100" fill="url(#bg)"/>
  <g transform="translate(256, 256)">
    <!-- Ticket shape -->
    <path d="M-120,-80 L120,-80 L120,-30 A25,25 0 0,0 120,30 L120,80 L-120,80 L-120,30 A25,25 0 0,0 -120,-30 Z"
          fill="white"
          opacity="0.95"/>
    <!-- Scan lines -->
    <rect x="-80" y="-50" width="8" height="100" fill="#7c3aed" rx="2"/>
    <rect x="-55" y="-50" width="12" height="100" fill="#7c3aed" rx="2"/>
    <rect x="-30" y="-50" width="6" height="100" fill="#7c3aed" rx="2"/>
    <rect x="-10" y="-50" width="16" height="100" fill="#7c3aed" rx="2"/>
    <rect x="20" y="-50" width="8" height="100" fill="#7c3aed" rx="2"/>
    <rect x="40" y="-50" width="12" height="100" fill="#7c3aed" rx="2"/>
    <rect x="65" y="-50" width="6" height="100" fill="#7c3aed" rx="2"/>
  </g>
</svg>
